<svg width="100%" height="100%" id="svg" viewBox="0 0 1440 690" xmlns="http://www.w3.org/2000/svg" class="transition duration-300 ease-in-out delay-150"><path d="M 0,700 L 0,262 C 108.78571428571428,276.4642857142857 217.57142857142856,290.92857142857144 326,326 C 434.42857142857144,361.07142857142856 542.4999999999999,416.75000000000006 670,374 C 797.5000000000001,331.24999999999994 944.4285714285716,190.07142857142856 1076,155 C 1207.5714285714284,119.92857142857144 1323.7857142857142,190.96428571428572 1440,262 L 1440,700 L 0,700 Z" stroke="none" stroke-width="0" fill="#9268ac" fill-opacity="1" class="transition-all duration-300 ease-in-out delay-150 path-0"></path></svg>





<svg width="100%" height="100%" id="svg" viewBox="0 0 1440 690" xmlns="http://www.w3.org/2000/svg" class="transition duration-300 ease-in-out delay-150"><path d="M 0,700 L 0,262 C 135.07142857142856,221.17857142857144 270.1428571428571,180.35714285714286 397,204 C 523.8571428571429,227.64285714285714 642.4999999999999,315.75 747,357 C 851.5000000000001,398.25 941.8571428571429,392.64285714285717 1055,369 C 1168.142857142857,345.35714285714283 1304.0714285714284,303.67857142857144 1440,262 L 1440,700 L 0,700 Z" stroke="none" stroke-width="0" fill="#9268ac" fill-opacity="1" class="transition-all duration-300 ease-in-out delay-150 path-0"></path></svg>